<?xml version="1.0" standalone="no"?>
<!DOCTYPE svg PUBLIC "-//W3C//DTD SVG 20010904//EN"
 "http://www.w3.org/TR/2001/REC-SVG-20010904/DTD/svg10.dtd">
<svg version="1.0" xmlns="http://www.w3.org/2000/svg"
 width="337.000000pt" height="337.000000pt" viewBox="0 0 337.000000 337.000000"
 preserveAspectRatio="xMidYMid meet">
<metadata>
Created by potrace 1.14, written by Peter Selinger 2001-2017
</metadata>
<g transform="translate(0.000000,337.000000) scale(0.100000,-0.100000)"
fill="#000000" stroke="none">
<path d="M1587 3104 c-1 -1 -51 -4 -112 -8 -60 -3 -121 -8 -135 -10 -14 -3
-45 -7 -70 -10 -122 -14 -319 -63 -470 -117 l-115 -41 2 -247 c1 -220 -2 -279
-22 -399 -5 -28 -3 -33 22 -43 15 -6 42 -13 58 -15 17 -3 36 -7 42 -9 7 -2 55
-7 108 -11 77 -5 95 -4 96 7 3 41 15 137 25 193 11 65 60 192 92 240 97 144
232 208 437 209 273 0 475 -132 608 -398 70 -141 126 -362 142 -566 4 -46 8
-88 9 -93 0 -6 -219 -10 -549 -10 l-549 -1 -18 -58 c-22 -74 -32 -137 -33
-207 l0 -55 90 3 c50 2 124 5 165 8 41 2 260 7 486 11 l411 6 -2 -54 c-6 -135
-26 -272 -59 -400 -107 -424 -336 -633 -696 -637 -315 -3 -509 147 -579 449
-17 75 -29 144 -30 190 -1 12 -12 15 -58 12 -123 -5 -272 -50 -266 -80 15 -77
21 -450 9 -561 l-5 -50 107 -45 c202 -85 402 -141 572 -160 116 -13 456 -16
505 -4 11 3 43 8 70 11 117 16 281 68 400 128 412 207 653 609 702 1168 12
148 6 447 -11 536 -2 12 -7 39 -10 60 -13 79 -45 201 -76 284 -156 422 -488
681 -970 755 -45 6 -318 23 -323 19z"/>
</g>
</svg>
