<?xml version="1.0" encoding="UTF-8"?> <svg xmlns="http://www.w3.org/2000/svg" width="215" height="70" viewBox="0 0 215 70" fill="none"> <g clip-path="url(#clip0)"> <path d="M214.158 60.2116H157.081C156.608 60.2116 156.239 59.8413 156.239 59.3651C156.239 58.8889 156.608 58.5185 157.081 58.5185H213.369V1.64021H1.63078V58.5185H57.4456C57.919 58.5185 58.2873 58.8889 58.2873 59.3651C58.2873 59.8413 57.919 60.2116 57.4456 60.2116H0.841693C0.368241 60.2116 0 59.8413 0 59.3651V0.846561C0 0.37037 0.368241 0 0.841693 0H214.211C214.684 0 215.053 0.37037 215.053 0.846561V59.418C215 59.8413 214.632 60.2116 214.158 60.2116Z" fill="black"></path> <path d="M72.2278 66.5077C71.8069 66.5077 71.3861 66.5077 70.9652 66.4548C70.4392 66.4019 70.0183 65.9786 70.0183 65.4495V54.9204C70.0183 54.3384 70.4918 53.9151 71.0178 53.9151C71.5439 53.9151 72.0173 54.3913 72.0173 54.9204V64.4442C74.858 64.4971 77.0675 63.7035 78.593 62.1691C81.3286 59.4178 81.1181 54.9733 81.1181 54.9733C81.0655 54.3913 81.4864 53.9151 82.065 53.9151C82.5911 53.8622 83.1172 54.2855 83.1172 54.8675C83.1172 55.0791 83.4328 60.2114 80.0134 63.6506C78.1196 65.5553 75.4893 66.5077 72.2278 66.5077Z" fill="black"></path> <path d="M76.4363 61.5873C75.8576 61.5873 75.4368 61.1111 75.4368 60.582V54.9736C75.4368 54.3915 75.9102 53.9683 76.4363 53.9683C76.9623 53.9683 77.4358 54.4445 77.4358 54.9736V60.582C77.4358 61.164 76.9623 61.5873 76.4363 61.5873Z" fill="black"></path> <path d="M93.9539 53.9683H86.1682C85.5896 53.9683 85.1687 54.4445 85.1687 54.9736C85.1687 55.5027 85.6422 55.9788 86.1682 55.9788H91.4288V65.5027C91.4288 66.0847 91.9023 66.5079 92.4283 66.5079C92.9544 66.5079 93.4278 66.0318 93.4278 65.5027V55.9788H93.9013C94.4799 55.9788 94.9008 55.5027 94.9008 54.9736C94.9008 54.4445 94.5326 53.9683 93.9539 53.9683Z" fill="black"></path> <path d="M103.423 53.9683H98.2676C97.6889 53.9683 97.2681 54.4445 97.2681 54.9736C97.2681 55.5556 97.7415 55.9788 98.2676 55.9788H98.741V65.5027C98.741 66.0847 99.2145 66.5079 99.7405 66.5079C100.267 66.5079 100.74 66.0318 100.74 65.5027V55.9788H103.37C106.369 55.9788 106.632 57.2487 106.632 58.6773V65.5027C106.632 66.0847 107.105 66.5079 107.631 66.5079C108.157 66.5079 108.631 66.0318 108.631 65.5027V58.6773C108.684 55.5556 106.895 53.9683 103.423 53.9683Z" fill="black"></path> <path d="M117.311 70C116.732 70 116.312 69.5238 116.312 68.9947V54.9736C116.312 54.3915 116.785 53.9683 117.311 53.9683C117.837 53.9683 118.311 54.4445 118.311 54.9736V68.9947C118.311 69.5238 117.89 70 117.311 70Z" fill="black"></path> <path d="M122.519 66.5607C122.045 66.5607 121.625 66.1903 121.519 65.7141C121.414 65.185 121.835 64.6559 122.361 64.5501C122.624 64.4972 128.253 63.4919 128.726 55.9787H121.993C121.73 55.9787 121.467 55.8728 121.256 55.6612C121.046 55.4496 120.941 55.185 120.941 54.9205L120.993 49.7353C120.993 49.1533 121.467 48.73 121.993 48.73C122.571 48.73 122.992 49.2062 122.992 49.7353L122.94 53.9152H129.673C130.252 53.9152 130.673 54.3914 130.673 54.9205C130.673 65.185 122.677 66.5078 122.571 66.5078C122.624 66.5607 122.571 66.5607 122.519 66.5607Z" fill="black"></path> <path d="M144.666 64.7615L142.246 62.2747L144.14 54.9203C144.298 54.3912 143.982 53.8091 143.403 53.7033C142.877 53.5446 142.299 53.862 142.193 54.4441L140.563 60.6345L134.355 54.2853C133.987 53.862 133.303 53.862 132.935 54.2853C132.514 54.6557 132.514 55.3435 132.935 55.7139L135.039 57.8832L133.093 65.2906C132.935 65.8197 133.25 66.4017 133.829 66.5075C133.934 66.5075 133.987 66.5605 134.092 66.5605C134.513 66.5605 134.934 66.243 135.039 65.8197L136.67 59.5763L143.193 66.243C143.403 66.4546 143.666 66.5605 143.929 66.5605C144.192 66.5605 144.455 66.4546 144.613 66.2959C145.087 65.8197 145.087 65.1848 144.666 64.7615Z" fill="black"></path> <path d="M17.7807 36.7728C17.6755 36.7728 17.5177 36.7199 17.4125 36.667C16.9916 36.4554 16.8338 35.9792 17.0442 35.5559L19.5693 30.5294L17.4125 29.4712C16.9916 29.2596 16.8338 28.7834 17.0442 28.3601C17.2546 27.9368 17.7281 27.7781 18.1489 27.9898L20.3584 29.048L24.3564 21.2173C24.3564 21.1114 24.409 21.0585 24.4616 21.0056C24.6195 20.7411 24.8825 20.6353 25.1455 20.6353C25.4085 20.6353 25.7242 20.794 25.882 21.0056C25.9346 21.0585 25.9346 21.1114 25.9872 21.1644L33.2468 35.5559C33.4046 35.8733 33.352 36.2437 33.089 36.5083C32.826 36.7728 32.4577 36.8257 32.1421 36.667L21.0949 31.2702L18.5698 36.2966C18.412 36.6141 18.0963 36.7728 17.7807 36.7728ZM21.8313 29.8416L30.6165 34.1273L25.1455 23.2808L21.8313 29.8416Z" fill="black"></path> <path d="M50.1332 36.7728C50.028 36.7728 49.8702 36.7199 49.765 36.667C49.3441 36.4554 49.1863 35.9792 49.3968 35.5559L51.9218 30.5294L49.765 29.4712C49.3441 29.2596 49.1863 28.7834 49.3968 28.3601C49.6072 27.9368 50.0806 27.7781 50.5015 27.9898L52.7109 29.048L56.709 21.2173C56.709 21.1114 56.7616 21.0585 56.8142 21.0056C56.972 20.7411 57.235 20.6353 57.498 20.6353C57.7611 20.6353 58.0767 20.794 58.2345 21.0056C58.2871 21.0585 58.2871 21.1114 58.3397 21.1644L65.5993 35.5559C65.7572 35.8733 65.7046 36.2437 65.4415 36.5083C65.1785 36.7728 64.8103 36.8257 64.4946 36.667L53.4474 31.2702L50.9223 36.2966C50.7119 36.6141 50.4489 36.7728 50.1332 36.7728ZM54.1839 29.8416L62.969 34.1273L57.4454 23.2808L54.1839 29.8416Z" fill="black"></path> <path d="M46.0826 36.773H36.6662C36.1927 36.773 35.8245 36.4026 35.8245 35.9264V21.4291C35.8245 20.9529 36.1927 20.5825 36.6662 20.5825C37.1396 20.5825 37.5079 20.9529 37.5079 21.4291V35.0799H46.1352C46.6087 35.0799 46.9769 35.4502 46.9769 35.9264C46.9769 36.4026 46.5561 36.773 46.0826 36.773Z" fill="black"></path> <path d="M83.4854 36.773C83.275 36.773 83.0646 36.6672 82.9067 36.5084L69.8079 23.3868V35.9264C69.8079 36.4026 69.4397 36.773 68.9662 36.773C68.4928 36.773 68.1245 36.4026 68.1245 35.9264V21.4291C68.1245 21.1116 68.3349 20.7942 68.6506 20.6883C68.9662 20.5825 69.2818 20.6354 69.5449 20.8471L82.6437 33.9688V21.4291C82.6437 20.9529 83.0119 20.5825 83.4854 20.5825C83.9589 20.5825 84.3271 20.9529 84.3271 21.4291V35.9264C84.3271 36.2439 84.1167 36.5614 83.801 36.6672C83.6958 36.773 83.5906 36.773 83.4854 36.773Z" fill="black"></path> <path d="M115.628 36.6669C115.522 36.6669 115.365 36.614 115.259 36.561C114.839 36.3494 114.681 35.8732 114.891 35.4499L117.416 30.4235L115.259 29.3653C114.839 29.1536 114.681 28.6774 114.891 28.2542C115.102 27.8309 115.575 27.6722 115.996 27.8838L118.205 28.942L122.203 21.1113C122.203 21.0055 122.256 20.9526 122.309 20.8997C122.466 20.6351 122.729 20.5293 122.992 20.5293C123.255 20.5293 123.571 20.688 123.729 20.8997C123.782 20.9526 123.782 21.0055 123.834 21.0584L131.041 35.4499C131.199 35.7674 131.146 36.1378 130.883 36.4023C130.62 36.6669 130.252 36.7198 129.936 36.561L118.889 31.1642L116.364 36.1907C116.206 36.4552 115.943 36.6669 115.628 36.6669ZM119.678 29.6827L128.463 33.9685L122.992 23.1219L119.678 29.6827Z" fill="black"></path> <path d="M149.716 36.6669C149.611 36.6669 149.453 36.614 149.348 36.561C148.927 36.3494 148.769 35.8732 148.98 35.4499L151.505 30.4235L149.348 29.3653C148.927 29.1536 148.769 28.6774 148.98 28.2542C149.19 27.8309 149.663 27.6722 150.084 27.8838L152.294 28.942L156.292 21.1113C156.292 21.0055 156.344 20.9526 156.397 20.8997C156.555 20.6351 156.818 20.5293 157.081 20.5293C157.344 20.5293 157.659 20.688 157.817 20.8997C157.87 20.9526 157.87 21.0055 157.923 21.0584L165.13 35.4499C165.287 35.7674 165.235 36.1378 164.972 36.4023C164.709 36.6669 164.34 36.7198 164.025 36.561L152.978 31.1642L150.452 36.1907C150.295 36.4552 150.032 36.6669 149.716 36.6669ZM153.767 29.6827L162.552 33.9685L157.081 23.1219L153.767 29.6827Z" fill="black"></path> <path d="M110.841 20.4766C110.367 20.4766 109.999 20.8469 109.999 21.3231V27.7252H100.004V21.3231C100.004 20.8469 99.6355 20.4766 99.162 20.4766C98.6886 20.4766 98.3203 20.8469 98.3203 21.3231V35.8205C98.3203 36.2967 98.6886 36.667 99.162 36.667C99.6355 36.667 100.004 36.2967 100.004 35.8205V29.3655H109.999V35.7676C109.999 36.2438 110.367 36.6141 110.841 36.6141C111.314 36.6141 111.682 36.2438 111.682 35.7676V21.3231C111.682 20.8469 111.314 20.4766 110.841 20.4766Z" fill="black"></path> <path d="M197.167 20.4766C196.693 20.4766 196.325 20.8469 196.325 21.3231V27.7252H186.33V21.3231C186.33 20.8469 185.962 20.4766 185.488 20.4766C185.015 20.4766 184.646 20.8469 184.646 21.3231V35.8205C184.646 36.2967 185.015 36.667 185.488 36.667C185.962 36.667 186.33 36.2967 186.33 35.8205V29.3655H196.325V35.7676C196.325 36.2438 196.693 36.6141 197.167 36.6141C197.64 36.6141 198.008 36.2438 198.008 35.7676V21.3231C198.008 20.8469 197.64 20.4766 197.167 20.4766Z" fill="black"></path> <path d="M138.932 36.6141H134.513C134.039 36.6141 133.671 36.2438 133.671 35.7676V21.3231C133.671 20.8469 134.039 20.4766 134.513 20.4766H138.932C143.351 20.4766 146.98 24.0744 146.98 28.5718C146.928 33.0162 143.351 36.6141 138.932 36.6141ZM135.302 34.9739H138.932C142.456 34.9739 145.297 32.1168 145.297 28.5718C145.297 25.0268 142.456 22.1697 138.932 22.1697H135.302V34.9739Z" fill="black"></path> <path d="M174.072 37.0903C170.127 37.0903 167.076 35.0268 167.076 32.4342C167.076 31.958 167.444 31.5876 167.918 31.5876C168.391 31.5876 168.759 31.958 168.759 32.4342C168.759 34.0744 171.232 35.45 174.125 35.45C177.018 35.45 179.491 34.0744 179.491 32.4342C179.491 30.159 177.808 29.7358 174.23 29.4183C171.179 29.1538 167.444 28.7834 167.444 24.7093C167.444 22.0638 170.495 20.0532 174.441 20.0532C178.386 20.0532 181.437 22.1167 181.437 24.7093C181.437 25.1855 181.069 25.5559 180.596 25.5559C180.122 25.5559 179.754 25.1855 179.754 24.7093C179.754 23.0691 177.281 21.6934 174.388 21.6934C171.495 21.6934 169.022 23.0691 169.022 24.7093C169.022 27.0374 170.706 27.4606 174.336 27.7781C177.334 28.0426 181.069 28.413 181.069 32.4342C181.069 35.0268 178.018 37.0903 174.072 37.0903Z" fill="black"></path> </g> <defs> <clipPath id="clip0"> <rect width="215" height="70" fill="white"></rect> </clipPath> </defs> </svg> 